<?xml version="1.0" encoding="UTF-8" standalone="no"?>
<!-- Created with Inkscape (http://www.inkscape.org/) -->

<svg
   version="1.1"
   id="svg1"
   width="343.61212"
   height="504.86221"
   viewBox="0 0 343.61212 504.86221"
   sodipodi:docname="self_attention_architecture.svg"
   inkscape:version="1.3.2 (091e20ef0f, 2023-11-25, custom)"
   inkscape:export-filename="self_attention_architecture.pdf"
   inkscape:export-xdpi="96"
   inkscape:export-ydpi="96"
   xmlns:inkscape="http://www.inkscape.org/namespaces/inkscape"
   xmlns:sodipodi="http://sodipodi.sourceforge.net/DTD/sodipodi-0.dtd"
   xmlns="http://www.w3.org/2000/svg"
   xmlns:svg="http://www.w3.org/2000/svg">
  <defs
     id="defs1" />
  <sodipodi:namedview
     id="namedview1"
     pagecolor="#ffffff"
     bordercolor="#666666"
     borderopacity="1.0"
     inkscape:showpageshadow="2"
     inkscape:pageopacity="0.0"
     inkscape:pagecheckerboard="0"
     inkscape:deskcolor="#d1d1d1"
     inkscape:zoom="1.6459936"
     inkscape:cx="138.21439"
     inkscape:cy="281.59282"
     inkscape:window-width="1920"
     inkscape:window-height="1028"
     inkscape:window-x="0"
     inkscape:window-y="52"
     inkscape:window-maximized="1"
     inkscape:current-layer="g1">
    <inkscape:page
       x="0"
       y="0"
       inkscape:label="1"
       id="page1"
       width="343.61212"
       height="504.86221"
       margin="0"
       bleed="0" />
  </sodipodi:namedview>
  <g
     id="g1"
     inkscape:groupmode="layer"
     inkscape:label="1">
    <path
       id="path1"
       d="m 65.066,321.555 c 6.032,-0.129 11.055,11.539 11.465,26.617 0.407,15.078 -3.945,28.34 -9.929,30.246 -5.981,1.91 -11.52,-8.195 -12.633,-23.047 -1.114,-14.855 2.586,-29.309 8.433,-32.969"
       style="fill:#e4b17e;fill-opacity:1;fill-rule:nonzero;stroke:none"
       transform="scale(1.3333333)" />
    <path
       id="path2"
       d="m 114.949,321.555 c 6.028,-0.129 11.055,11.539 11.461,26.617 0.406,15.078 -3.945,28.34 -9.926,30.246 -5.984,1.91 -11.523,-8.195 -12.636,-23.047 -1.114,-14.855 2.586,-29.309 8.437,-32.969"
       style="fill:#e4b17e;fill-opacity:1;fill-rule:nonzero;stroke:none"
       transform="scale(1.3333333)" />
    <path
       id="path3"
       d="m 201.199,321.555 c 6.028,-0.129 11.055,11.539 11.461,26.617 0.406,15.078 -3.945,28.34 -9.926,30.246 -5.984,1.91 -11.523,-8.195 -12.636,-23.047 -1.114,-14.855 2.586,-29.309 8.437,-32.969"
       style="fill:#e4b17e;fill-opacity:1;fill-rule:nonzero;stroke:none"
       transform="scale(1.3333333)" />
    <path
       id="path4"
       d="m 11.297,279.195 c 6.027,-0.129 11.055,11.539 11.461,26.617 0.406,15.079 -3.946,28.34 -9.926,30.247 -5.984,1.91 -11.523,-8.196 -12.637,-23.047 -1.113,-14.852 2.586,-29.305 8.438,-32.969"
       style="fill:#e4b17e;fill-opacity:1;fill-rule:nonzero;stroke:none"
       transform="scale(1.3333333)" />
    <path
       id="path5"
       d="m 124.668,11.488 c -0.129,-6.031 11.543,-11.054 26.621,-11.461 15.074,-0.41 28.336,3.946 30.246,9.926 1.906,5.981 -8.199,11.524 -23.051,12.637 -14.851,1.113 -29.304,-2.586 -32.964,-8.438"
       style="fill:#e4b17e;fill-opacity:1;fill-rule:nonzero;stroke:none"
       transform="scale(1.3333333)" />
    <path
       id="path6"
       d="m 59.777,132.223 c 6.032,-0.059 11.055,5.254 11.461,12.113 0.41,6.859 -3.945,12.894 -9.926,13.762 -5.98,0.867 -11.519,-3.731 -12.632,-10.489 -1.114,-6.757 2.582,-13.332 8.433,-15"
       style="fill:#e4b17e;fill-opacity:1;fill-rule:nonzero;stroke:none"
       transform="scale(1.3333333)" />
    <path
       id="path7"
       d="m 109.656,132.223 c 6.032,-0.059 11.059,5.254 11.465,12.113 0.406,6.859 -3.945,12.894 -9.93,13.762 -5.98,0.867 -11.519,-3.731 -12.632,-10.489 -1.114,-6.757 2.586,-13.332 8.437,-15"
       style="fill:#e4b17e;fill-opacity:1;fill-rule:nonzero;stroke:none"
       transform="scale(1.3333333)" />
    <path
       id="path8"
       d="m 195.906,132.223 c 6.032,-0.059 11.059,5.254 11.465,12.113 0.406,6.859 -3.945,12.894 -9.93,13.762 -5.98,0.867 -11.519,-3.731 -12.632,-10.489 -1.114,-6.757 2.586,-13.332 8.437,-15"
       style="fill:#e4b17e;fill-opacity:1;fill-rule:nonzero;stroke:none"
       transform="scale(1.3333333)" />
    <path
       id="path9"
       d="M 48.719,56.855 V 33.336 c 0,-0.57 0.461,-1.031 1.031,-1.031 h 206.93 c 0.57,0 1.031,0.461 1.031,1.031 v 23.519 c 0,0.571 -0.461,1.032 -1.031,1.032 H 49.75 c -0.57,0 -1.031,-0.461 -1.031,-1.032 z"
       style="fill:#7dadb7;fill-opacity:1;fill-rule:nonzero;stroke:none"
       transform="scale(1.3333333)" />
    <path
       id="path10"
       d="m 97.371,208.039 h 24.766 c 0.226,0 0.406,0.184 0.406,0.41 v 82.137 c 0,0.226 -0.18,0.406 -0.406,0.406 H 97.371 c -0.226,0 -0.406,-0.18 -0.406,-0.406 v -82.137 c 0,-0.226 0.18,-0.41 0.406,-0.41 z"
       style="fill:#7dadb7;fill-opacity:1;fill-rule:nonzero;stroke:none"
       transform="scale(1.3333333)" />
    <path
       id="path13"
       d="m 183.621,208.039 h 24.766 c 0.226,0 0.406,0.184 0.406,0.41 v 82.137 c 0,0.226 -0.18,0.406 -0.406,0.406 h -24.766 c -0.226,0 -0.406,-0.18 -0.406,-0.406 v -82.137 c 0,-0.226 0.18,-0.41 0.406,-0.41 z"
       style="fill:#7dadb7;fill-opacity:1;fill-rule:nonzero;stroke:none"
       transform="scale(1.3333333)" />
    <path
       id="path16"
       d="m 71.836,68.344 h 25.348 c 0.062,0 0.117,0.051 0.117,0.117 v 23.676 c 0,0.062 -0.055,0.117 -0.117,0.117 H 71.836 c -0.063,0 -0.117,-0.055 -0.117,-0.117 V 68.461 c 0,-0.066 0.054,-0.117 0.117,-0.117 z"
       style="fill:#7dadb7;fill-opacity:1;fill-rule:nonzero;stroke:none"
       transform="scale(1.3333333)" />
    <path
       id="path17"
       d="m 121.719,68.344 h 25.343 c 0.067,0 0.118,0.051 0.118,0.117 v 23.676 c 0,0.062 -0.051,0.117 -0.118,0.117 h -25.343 c -0.067,0 -0.117,-0.055 -0.117,-0.117 V 68.461 c 0,-0.066 0.05,-0.117 0.117,-0.117 z"
       style="fill:#7dadb7;fill-opacity:1;fill-rule:nonzero;stroke:none"
       transform="scale(1.3333333)" />
    <path
       id="path18"
       d="m 207.969,68.344 h 25.343 c 0.067,0 0.118,0.051 0.118,0.117 v 23.676 c 0,0.062 -0.051,0.117 -0.118,0.117 h -25.343 c -0.067,0 -0.117,-0.055 -0.117,-0.117 V 68.461 c 0,-0.066 0.05,-0.117 0.117,-0.117 z"
       style="fill:#7dadb7;fill-opacity:1;fill-rule:nonzero;stroke:none"
       transform="scale(1.3333333)" />
    <path
       id="path19"
       d="M 22.785,307.742 H 145.484"
       style="fill:none;stroke:#000000;stroke-width:0.749999;stroke-linecap:butt;stroke-linejoin:miter;stroke-miterlimit:4;stroke-dasharray:none;stroke-opacity:1"
       transform="scale(1.3333333)" />
    <path
       id="path20"
       d="M 54.582,308.117 V 296.422"
       style="fill:none;stroke:#000000;stroke-width:0.749999;stroke-linecap:butt;stroke-linejoin:miter;stroke-miterlimit:4;stroke-dasharray:none;stroke-opacity:1"
       transform="scale(1.3333333)" />
    <path
       id="path21"
       d="m 58.086,296.457 -7.004,-0.074 3.59,-4.43 z"
       style="fill:#000000;fill-opacity:1;fill-rule:nonzero;stroke:none"
       transform="scale(1.3333333)" />
    <path
       id="path22"
       d="m 59.875,167.664 v -4.398"
       style="fill:none;stroke:#000000;stroke-width:0.749999;stroke-linecap:butt;stroke-linejoin:miter;stroke-miterlimit:4;stroke-dasharray:none;stroke-opacity:1"
       transform="scale(1.3333333)" />
    <path
       id="path23"
       d="m 63.375,163.414 -7.004,-0.074 3.59,-4.43 z"
       style="fill:#000000;fill-opacity:1;fill-rule:nonzero;stroke:none"
       transform="scale(1.3333333)" />
    <path
       id="path24"
       d="M 84.508,102.516 V 98.113"
       style="fill:none;stroke:#000000;stroke-width:0.749999;stroke-linecap:butt;stroke-linejoin:miter;stroke-miterlimit:4;stroke-dasharray:none;stroke-opacity:1"
       transform="scale(1.3333333)" />
    <path
       id="path25"
       d="m 88.012,98.266 -7.004,-0.075 3.59,-4.433 z"
       style="fill:#000000;fill-opacity:1;fill-rule:nonzero;stroke:none"
       transform="scale(1.3333333)" />
    <path
       id="path26"
       d="M 134.391,102.516 V 98.113"
       style="fill:none;stroke:#000000;stroke-width:0.749999;stroke-linecap:butt;stroke-linejoin:miter;stroke-miterlimit:4;stroke-dasharray:none;stroke-opacity:1"
       transform="scale(1.3333333)" />
    <path
       id="path27"
       d="m 137.891,98.266 -7.004,-0.075 3.593,-4.433 z"
       style="fill:#000000;fill-opacity:1;fill-rule:nonzero;stroke:none"
       transform="scale(1.3333333)" />
    <path
       id="path28"
       d="M 220.641,102.516 V 98.113"
       style="fill:none;stroke:#000000;stroke-width:0.749999;stroke-linecap:butt;stroke-linejoin:miter;stroke-miterlimit:4;stroke-dasharray:none;stroke-opacity:1"
       transform="scale(1.3333333)" />
    <path
       id="path29"
       d="m 224.141,98.266 -7.004,-0.075 3.59,-4.433 z"
       style="fill:#000000;fill-opacity:1;fill-rule:nonzero;stroke:none"
       transform="scale(1.3333333)" />
    <path
       id="path30"
       d="m 109.754,167.664 v -4.398"
       style="fill:none;stroke:#000000;stroke-width:0.749999;stroke-linecap:butt;stroke-linejoin:miter;stroke-miterlimit:4;stroke-dasharray:none;stroke-opacity:1"
       transform="scale(1.3333333)" />
    <path
       id="path31"
       d="m 113.258,163.414 -7.004,-0.074 3.59,-4.43 z"
       style="fill:#000000;fill-opacity:1;fill-rule:nonzero;stroke:none"
       transform="scale(1.3333333)" />
    <path
       id="path32"
       d="m 196.004,167.664 v -4.398"
       style="fill:none;stroke:#000000;stroke-width:0.749999;stroke-linecap:butt;stroke-linejoin:miter;stroke-miterlimit:4;stroke-dasharray:none;stroke-opacity:1"
       transform="scale(1.3333333)" />
    <path
       id="path33"
       d="m 199.508,163.414 -7.004,-0.074 3.59,-4.43 z"
       style="fill:#000000;fill-opacity:1;fill-rule:nonzero;stroke:none"
       transform="scale(1.3333333)" />
    <path
       id="path34"
       d="M 84.508,68.125 V 63.727"
       style="fill:none;stroke:#000000;stroke-width:0.749999;stroke-linecap:butt;stroke-linejoin:miter;stroke-miterlimit:4;stroke-dasharray:none;stroke-opacity:1"
       transform="scale(1.3333333)" />
    <path
       id="path35"
       d="m 88.012,63.875 -7.004,-0.074 3.59,-4.434 z"
       style="fill:#000000;fill-opacity:1;fill-rule:nonzero;stroke:none"
       transform="scale(1.3333333)" />
    <path
       id="path36"
       d="M 134.391,68.125 V 63.727"
       style="fill:none;stroke:#000000;stroke-width:0.749999;stroke-linecap:butt;stroke-linejoin:miter;stroke-miterlimit:4;stroke-dasharray:none;stroke-opacity:1"
       transform="scale(1.3333333)" />
    <path
       id="path37"
       d="m 137.891,63.875 -7.004,-0.074 3.593,-4.434 z"
       style="fill:#000000;fill-opacity:1;fill-rule:nonzero;stroke:none"
       transform="scale(1.3333333)" />
    <path
       id="path38"
       d="M 220.641,68.125 V 63.727"
       style="fill:none;stroke:#000000;stroke-width:0.749999;stroke-linecap:butt;stroke-linejoin:miter;stroke-miterlimit:4;stroke-dasharray:none;stroke-opacity:1"
       transform="scale(1.3333333)" />
    <path
       id="path39"
       d="m 224.141,63.875 -7.004,-0.074 3.59,-4.434 z"
       style="fill:#000000;fill-opacity:1;fill-rule:nonzero;stroke:none"
       transform="scale(1.3333333)" />
    <path
       id="path40"
       d="M 153.215,32.023 V 27.621"
       style="fill:none;stroke:#000000;stroke-width:0.749999;stroke-linecap:butt;stroke-linejoin:miter;stroke-miterlimit:4;stroke-dasharray:none;stroke-opacity:1"
       transform="scale(1.3333333)" />
    <path
       id="path41"
       d="m 156.715,27.773 -7,-0.074 3.59,-4.433 z"
       style="fill:#000000;fill-opacity:1;fill-rule:nonzero;stroke:none"
       transform="scale(1.3333333)" />
    <path
       id="path42"
       d="M 104.465,307.742 V 296.047"
       style="fill:none;stroke:#000000;stroke-width:0.749999;stroke-linecap:butt;stroke-linejoin:miter;stroke-miterlimit:4;stroke-dasharray:none;stroke-opacity:1"
       transform="scale(1.3333333)" />
    <path
       id="path43"
       d="m 107.965,296.082 -7.004,-0.074 3.59,-4.43 z"
       style="fill:#000000;fill-opacity:1;fill-rule:nonzero;stroke:none"
       transform="scale(1.3333333)" />
    <path
       id="path44"
       d="M 65.164,321.062 V 296.047"
       style="fill:none;stroke:#000000;stroke-width:0.749999;stroke-linecap:butt;stroke-linejoin:miter;stroke-miterlimit:4;stroke-dasharray:none;stroke-opacity:1"
       transform="scale(1.3333333)" />
    <path
       id="path45"
       d="m 68.664,296.082 -7,-0.074 3.59,-4.43 z"
       style="fill:#000000;fill-opacity:1;fill-rule:nonzero;stroke:none"
       transform="scale(1.3333333)" />
    <path
       id="path46"
       d="M 160.492,307.742 H 191.09"
       style="fill:none;stroke:#000000;stroke-width:0.749999;stroke-linecap:butt;stroke-linejoin:miter;stroke-miterlimit:4;stroke-dasharray:none;stroke-opacity:1"
       transform="scale(1.3333333)" />
    <path
       id="path47"
       d="M 190.715,307.742 V 296.047"
       style="fill:none;stroke:#000000;stroke-width:0.749999;stroke-linecap:butt;stroke-linejoin:miter;stroke-miterlimit:4;stroke-dasharray:none;stroke-opacity:1"
       transform="scale(1.3333333)" />
    <path
       id="path48"
       d="m 194.215,296.082 -7.004,-0.074 3.59,-4.43 z"
       style="fill:#000000;fill-opacity:1;fill-rule:nonzero;stroke:none"
       transform="scale(1.3333333)" />
    <path
       id="path49"
       d="M 201.293,321.062 V 296.047"
       style="fill:none;stroke:#000000;stroke-width:0.749999;stroke-linecap:butt;stroke-linejoin:miter;stroke-miterlimit:4;stroke-dasharray:none;stroke-opacity:1"
       transform="scale(1.3333333)" />
    <path
       id="path50"
       d="m 204.797,296.082 -7.004,-0.074 3.59,-4.43 z"
       style="fill:#000000;fill-opacity:1;fill-rule:nonzero;stroke:none"
       transform="scale(1.3333333)" />
    <path
       id="path51"
       d="M 115.043,321.062 V 296.047"
       style="fill:none;stroke:#000000;stroke-width:0.749999;stroke-linecap:butt;stroke-linejoin:miter;stroke-miterlimit:4;stroke-dasharray:none;stroke-opacity:1"
       transform="scale(1.3333333)" />
    <path
       id="path52"
       d="m 118.547,296.082 -7.004,-0.074 3.59,-4.43 z"
       style="fill:#000000;fill-opacity:1;fill-rule:nonzero;stroke:none"
       transform="scale(1.3333333)" />
    <path
       id="path53"
       d="m 33.215,192.754 v -23.59 c 0,-0.551 0.445,-0.996 0.996,-0.996 H 234.57 c 0.551,0 0.996,0.445 0.996,0.996 v 23.59 c 0,0.551 -0.445,0.996 -0.996,0.996 H 34.211 c -0.551,0 -0.996,-0.445 -0.996,-0.996 z"
       style="fill:#7dadb7;fill-opacity:1;fill-rule:nonzero;stroke:none"
       transform="scale(1.3333333)" />
    <path
       id="path54"
       d="m 87.91,207.77 v -9.426"
       style="fill:none;stroke:#000000;stroke-width:0.908715;stroke-linecap:butt;stroke-linejoin:miter;stroke-miterlimit:4;stroke-dasharray:none;stroke-opacity:1"
       transform="scale(0.908248,1.3333333)" />
    <path
       id="path55"
       d="m 63.375,198.758 -7.004,-0.074 3.59,-4.43 z"
       style="fill:#000000;fill-opacity:1;fill-rule:nonzero;stroke:none"
       transform="scale(1.3333333)" />
    <path
       id="path56"
       d="m 161.139,207.77 v -9.426"
       style="fill:none;stroke:#000000;stroke-width:0.908715;stroke-linecap:butt;stroke-linejoin:miter;stroke-miterlimit:4;stroke-dasharray:none;stroke-opacity:1"
       transform="scale(0.908248,1.3333333)" />
    <path
       id="path57"
       d="m 113.258,198.758 -7.004,-0.074 3.59,-4.43 z"
       style="fill:#000000;fill-opacity:1;fill-rule:nonzero;stroke:none"
       transform="scale(1.3333333)" />
    <path
       id="path58"
       d="m 287.757,207.77 v -9.426"
       style="fill:none;stroke:#000000;stroke-width:0.908715;stroke-linecap:butt;stroke-linejoin:miter;stroke-miterlimit:4;stroke-dasharray:none;stroke-opacity:1"
       transform="scale(0.908248,1.3333333)" />
    <path
       id="path59"
       d="m 199.508,198.758 -7.004,-0.074 3.59,-4.43 z"
       style="fill:#000000;fill-opacity:1;fill-rule:nonzero;stroke:none"
       transform="scale(1.3333333)" />
    <path
       id="path60"
       d="m 47.492,208.039 h 24.762 c 0.226,0 0.41,0.184 0.41,0.41 v 82.137 c 0,0.226 -0.184,0.406 -0.41,0.406 H 47.492 c -0.226,0 -0.41,-0.18 -0.41,-0.406 v -82.137 c 0,-0.226 0.184,-0.41 0.41,-0.41 z"
       style="fill:#7dadb7;fill-opacity:1;fill-rule:nonzero;stroke:none"
       transform="scale(1.3333333)" />
    <path
       id="path63"
       d="m 66.785,83.504 0.074,-7 4.434,3.59 z"
       style="fill:#000000;fill-opacity:1;fill-rule:nonzero;stroke:none"
       transform="scale(1.3333333)" />
    <path
       id="path64"
       d="M 60.25,131.847 V 80.409 h 8.062"
       style="fill:none;stroke:#000000;stroke-width:0.750027;stroke-linecap:butt;stroke-linejoin:miter;stroke-miterlimit:4;stroke-dasharray:none;stroke-opacity:1"
       transform="scale(1.3333333,1.3332173)" />
    <path
       id="path65"
       d="m 116.195,83.438 0.075,-6.938 4.429,3.555 z"
       style="fill:#000000;fill-opacity:1;fill-rule:nonzero;stroke:none"
       transform="scale(1.3333333)" />
    <path
       id="path66"
       d="M 109.656,132.905 V 81.084 h 8.067"
       style="fill:none;stroke:#000000;stroke-width:0.753333;stroke-linecap:butt;stroke-linejoin:miter;stroke-miterlimit:4;stroke-dasharray:none;stroke-opacity:1"
       transform="scale(1.3333333,1.321548)" />
    <path
       id="path67"
       d="m 202.445,83.422 0.075,-6.922 4.429,3.547 z"
       style="fill:#000000;fill-opacity:1;fill-rule:nonzero;stroke:none"
       transform="scale(1.3333333)" />
    <path
       id="path68"
       d="M 195.906,133.097 V 81.271 h 8.067"
       style="fill:none;stroke:#000000;stroke-width:0.754257;stroke-linecap:butt;stroke-linejoin:miter;stroke-miterlimit:4;stroke-dasharray:none;stroke-opacity:1"
       transform="scale(1.3333333,1.3183173)" />
    <path
       id="path69"
       d="m 106.402,182.203 c 0,-0.801 -0.527,-1.457 -1.199,-1.617 l -1.023,-0.246 c -0.496,-0.121 -0.809,-0.555 -0.809,-1.02 0,-0.558 0.43,-1.047 1.055,-1.047 1.336,0 1.512,1.313 1.558,1.672 0.012,0.047 0.012,0.098 0.098,0.098 0.106,0 0.106,-0.039 0.106,-0.191 v -1.61 c 0,-0.137 0,-0.191 -0.09,-0.191 -0.055,0 -0.063,0.008 -0.121,0.105 l -0.278,0.453 c -0.242,-0.23 -0.57,-0.558 -1.281,-0.558 -0.887,0 -1.559,0.703 -1.559,1.551 0,0.664 0.422,1.25 1.047,1.464 0.09,0.032 0.496,0.129 1.055,0.266 0.219,0.055 0.457,0.109 0.68,0.406 0.168,0.207 0.25,0.473 0.25,0.735 0,0.57 -0.399,1.144 -1.071,1.144 -0.234,0 -0.843,-0.039 -1.265,-0.429 -0.465,-0.434 -0.489,-0.946 -0.496,-1.235 -0.008,-0.078 -0.071,-0.078 -0.098,-0.078 -0.102,0 -0.102,0.055 -0.102,0.199 v 1.602 c 0,0.133 0,0.191 0.086,0.191 0.059,0 0.067,-0.019 0.121,-0.105 0,0 0.024,-0.032 0.289,-0.457 0.247,0.273 0.758,0.562 1.469,0.562 0.938,0 1.578,-0.785 1.578,-1.664 z m 4.223,-0.226 c 0,-1.024 -0.801,-1.872 -1.766,-1.872 -1,0 -1.777,0.872 -1.777,1.872 0,1.035 0.832,1.8 1.77,1.8 0.964,0 1.773,-0.781 1.773,-1.8 z m -0.664,-0.063 c 0,0.289 0,0.719 -0.176,1.07 -0.176,0.364 -0.527,0.594 -0.926,0.594 -0.343,0 -0.699,-0.168 -0.914,-0.535 -0.199,-0.352 -0.199,-0.84 -0.199,-1.129 0,-0.312 0,-0.742 0.192,-1.098 0.214,-0.367 0.593,-0.535 0.914,-0.535 0.351,0 0.695,0.176 0.902,0.52 0.207,0.344 0.207,0.808 0.207,1.113 z m 3.754,-3.305 c 0,-0.297 -0.297,-0.558 -0.723,-0.558 -0.558,0 -1.238,0.422 -1.238,1.269 v 0.922 h -0.633 v 0.246 h 0.633 v 2.594 c 0,0.359 -0.086,0.359 -0.625,0.359 v 0.25 l 0.914,-0.023 c 0.32,0 0.695,0 1.016,0.023 v -0.25 h -0.168 c -0.594,0 -0.61,-0.086 -0.61,-0.375 v -2.578 h 0.914 v -0.246 h -0.937 v -0.93 c 0,-0.703 0.383,-1.085 0.734,-1.085 0.024,0 0.145,0 0.266,0.054 -0.098,0.031 -0.238,0.137 -0.238,0.336 0,0.184 0.125,0.344 0.343,0.344 0.231,0 0.352,-0.16 0.352,-0.352 z m 2.246,4.09 v -0.457 h -0.199 v 0.442 c 0,0.589 -0.239,0.894 -0.535,0.894 -0.536,0 -0.536,-0.726 -0.536,-0.863 v -2.227 h 1.145 v -0.246 h -1.145 v -1.472 h -0.203 c -0.008,0.656 -0.246,1.511 -1.031,1.542 v 0.176 h 0.68 v 2.211 c 0,0.985 0.746,1.078 1.035,1.078 0.566,0 0.789,-0.566 0.789,-1.078 z m 7.488,0.992 v -0.25 h -0.191 c -0.617,0 -0.633,-0.086 -0.633,-0.375 v -4.214 c 0,-0.29 0.02,-0.379 0.633,-0.379 h 0.191 v -0.246 h -1.351 c -0.207,0 -0.207,0.007 -0.262,0.152 l -1.754,4.504 -1.734,-4.481 c -0.075,-0.175 -0.098,-0.175 -0.282,-0.175 h -1.351 v 0.246 h 0.191 c 0.617,0 0.633,0.089 0.633,0.379 v 4 c 0,0.214 0,0.589 -0.824,0.589 v 0.25 l 0.933,-0.023 0.938,0.023 v -0.25 c -0.824,0 -0.824,-0.375 -0.824,-0.589 v -4.313 h 0.008 l 1.929,4.977 c 0.039,0.101 0.078,0.175 0.16,0.175 0.086,0 0.11,-0.066 0.145,-0.152 l 1.965,-5.066 h 0.011 v 4.593 c 0,0.289 -0.019,0.375 -0.632,0.375 h -0.192 v 0.25 c 0.293,-0.023 0.84,-0.023 1.153,-0.023 0.308,0 0.847,0 1.14,0.023 z m 4.168,-0.714 v -0.446 h -0.199 v 0.446 c 0,0.464 -0.199,0.511 -0.289,0.511 -0.262,0 -0.293,-0.359 -0.293,-0.398 v -1.602 c 0,-0.336 0,-0.644 -0.289,-0.941 -0.313,-0.313 -0.711,-0.442 -1.098,-0.442 -0.656,0 -1.207,0.375 -1.207,0.907 0,0.238 0.16,0.375 0.367,0.375 0.227,0 0.368,-0.16 0.368,-0.367 0,-0.098 -0.039,-0.364 -0.407,-0.372 0.215,-0.277 0.61,-0.367 0.864,-0.367 0.394,0 0.847,0.313 0.847,1.024 v 0.297 c -0.406,0.023 -0.969,0.046 -1.472,0.289 -0.598,0.273 -0.797,0.687 -0.797,1.039 0,0.648 0.773,0.847 1.277,0.847 0.527,0 0.899,-0.32 1.051,-0.695 0.031,0.32 0.246,0.656 0.621,0.656 0.168,0 0.656,-0.113 0.656,-0.761 z m -1.336,-0.407 c 0,0.762 -0.574,1.032 -0.933,1.032 -0.395,0 -0.723,-0.282 -0.723,-0.68 0,-0.442 0.336,-1.106 1.656,-1.152 z m 5.602,1.121 v -0.25 c -0.434,0 -0.578,-0.015 -0.762,-0.246 l -1.07,-1.386 c 0.238,-0.301 0.543,-0.696 0.734,-0.903 0.25,-0.289 0.578,-0.41 0.953,-0.418 v -0.246 c -0.207,0.016 -0.449,0.024 -0.656,0.024 -0.238,0 -0.664,-0.02 -0.77,-0.024 v 0.246 c 0.168,0.02 0.235,0.121 0.235,0.25 0,0.129 -0.082,0.231 -0.121,0.282 l -0.496,0.621 -0.625,-0.805 c -0.071,-0.082 -0.071,-0.098 -0.071,-0.145 0,-0.121 0.121,-0.191 0.282,-0.203 v -0.246 l -0.868,0.024 c -0.168,0 -0.543,-0.008 -0.757,-0.024 v 0.246 c 0.558,0 0.566,0.012 0.945,0.489 l 0.789,1.035 c -0.375,0.476 -0.375,0.496 -0.75,0.949 -0.387,0.465 -0.855,0.48 -1.023,0.48 v 0.25 c 0.207,-0.019 0.453,-0.023 0.664,-0.023 l 0.757,0.023 v -0.25 c -0.175,-0.023 -0.23,-0.129 -0.23,-0.246 0,-0.175 0.23,-0.441 0.719,-1.015 l 0.609,0.797 c 0.063,0.089 0.168,0.218 0.168,0.265 0,0.07 -0.074,0.192 -0.289,0.199 v 0.25 l 0.863,-0.023 c 0.219,0 0.528,0.008 0.77,0.023 z m 7.633,-3.64 -0.227,-1.801 h -4.391 v 0.25 h 0.192 c 0.617,0 0.633,0.086 0.633,0.375 v 4.191 c 0,0.289 -0.016,0.375 -0.633,0.375 h -0.192 v 0.25 c 0.282,-0.023 0.903,-0.023 1.215,-0.023 0.328,0 1.059,0 1.344,0.023 v -0.25 h -0.262 c -0.761,0 -0.761,-0.101 -0.761,-0.382 v -1.969 h 0.687 c 0.77,0 0.848,0.258 0.848,0.937 h 0.203 v -2.121 h -0.203 c 0,0.672 -0.078,0.938 -0.848,0.938 h -0.687 v -2.028 c 0,-0.261 0.019,-0.316 0.394,-0.316 h 0.957 c 1.199,0 1.403,0.445 1.527,1.551 z m 4.621,3.64 v -0.25 c -0.559,0 -0.621,-0.054 -0.621,-0.449 v -2.84 l -1.176,0.09 v 0.246 c 0.558,0 0.621,0.059 0.621,0.45 v 1.425 c 0,0.696 -0.383,1.239 -0.965,1.239 -0.676,0 -0.707,-0.375 -0.707,-0.793 v -2.657 l -1.176,0.09 v 0.246 c 0.625,0 0.625,0.024 0.625,0.739 v 1.199 c 0,0.625 0,1.351 1.215,1.351 0.449,0 0.801,-0.222 1.031,-0.718 v 0.718 z m 4.449,0 v -0.25 c -0.414,0 -0.617,0 -0.625,-0.238 v -1.527 c 0,-0.692 0,-0.938 -0.246,-1.227 -0.113,-0.137 -0.375,-0.297 -0.84,-0.297 -0.586,0 -0.961,0.344 -1.184,0.84 v -0.84 l -1.129,0.09 v 0.246 c 0.559,0 0.626,0.059 0.626,0.45 v 2.144 c 0,0.359 -0.09,0.359 -0.626,0.359 v 0.25 l 0.903,-0.023 0.898,0.023 v -0.25 c -0.539,0 -0.625,0 -0.625,-0.359 v -1.473 c 0,-0.832 0.567,-1.281 1.078,-1.281 0.504,0 0.594,0.434 0.594,0.891 v 1.863 c 0,0.359 -0.086,0.359 -0.625,0.359 v 0.25 l 0.906,-0.023 z m 3.488,-0.953 c 0,-0.082 -0.078,-0.082 -0.105,-0.082 -0.071,0 -0.086,0.035 -0.102,0.082 -0.234,0.742 -0.754,0.84 -1.051,0.84 -0.421,0 -1.125,-0.344 -1.125,-1.633 0,-1.304 0.657,-1.64 1.079,-1.64 0.074,0 0.578,0.011 0.855,0.297 -0.328,0.023 -0.375,0.265 -0.375,0.367 0,0.211 0.145,0.371 0.367,0.371 0.211,0 0.367,-0.137 0.367,-0.379 0,-0.543 -0.605,-0.856 -1.222,-0.856 -1,0 -1.735,0.864 -1.735,1.856 0,1.023 0.789,1.816 1.719,1.816 1.07,0 1.328,-0.961 1.328,-1.039 z m 2.887,-0.039 v -0.457 h -0.199 v 0.442 c 0,0.589 -0.239,0.894 -0.535,0.894 -0.536,0 -0.536,-0.726 -0.536,-0.863 v -2.227 h 1.145 v -0.246 h -1.145 v -1.472 h -0.199 c -0.012,0.656 -0.25,1.511 -1.035,1.542 v 0.176 h 0.68 v 2.211 c 0,0.985 0.746,1.078 1.035,1.078 0.566,0 0.789,-0.566 0.789,-1.078 z m 2.434,0.992 v -0.25 c -0.528,0 -0.559,-0.039 -0.559,-0.351 v -2.938 l -1.121,0.09 v 0.246 c 0.519,0 0.59,0.051 0.59,0.442 v 2.152 c 0,0.359 -0.086,0.359 -0.621,0.359 v 0.25 l 0.878,-0.023 c 0.282,0 0.559,0.016 0.833,0.023 z m -0.442,-4.832 c 0,-0.218 -0.183,-0.425 -0.422,-0.425 -0.273,0 -0.433,0.222 -0.433,0.425 0,0.215 0.183,0.422 0.425,0.422 0.27,0 0.43,-0.222 0.43,-0.422 z m 4.457,3.118 c 0,-1.024 -0.801,-1.872 -1.769,-1.872 -1,0 -1.774,0.872 -1.774,1.872 0,1.035 0.832,1.8 1.766,1.8 0.969,0 1.777,-0.781 1.777,-1.8 z m -0.664,-0.063 c 0,0.289 0,0.719 -0.176,1.07 -0.175,0.364 -0.527,0.594 -0.929,0.594 -0.344,0 -0.696,-0.168 -0.911,-0.535 -0.199,-0.352 -0.199,-0.84 -0.199,-1.129 0,-0.312 0,-0.742 0.192,-1.098 0.215,-0.367 0.589,-0.535 0.91,-0.535 0.351,0 0.695,0.176 0.906,0.52 0.207,0.344 0.207,0.808 0.207,1.113 z m 5.176,1.777 v -0.25 c -0.414,0 -0.617,0 -0.625,-0.238 v -1.527 c 0,-0.692 0,-0.938 -0.246,-1.227 -0.113,-0.137 -0.375,-0.297 -0.84,-0.297 -0.586,0 -0.961,0.344 -1.184,0.84 v -0.84 l -1.129,0.09 v 0.246 c 0.559,0 0.625,0.059 0.625,0.45 v 2.144 c 0,0.359 -0.089,0.359 -0.625,0.359 v 0.25 l 0.903,-0.023 0.898,0.023 v -0.25 c -0.535,0 -0.625,0 -0.625,-0.359 v -1.473 c 0,-0.832 0.567,-1.281 1.078,-1.281 0.508,0 0.594,0.434 0.594,0.891 v 1.863 c 0,0.359 -0.086,0.359 -0.625,0.359 v 0.25 l 0.906,-0.023 z"
       style="fill:#000000;fill-opacity:1;fill-rule:nonzero;stroke:none"
       transform="scale(1.3333333)" />
    <path
       id="path70"
       d="m 149.281,46.34 c 0,-0.801 -0.527,-1.457 -1.199,-1.617 l -1.023,-0.246 c -0.497,-0.122 -0.809,-0.551 -0.809,-1.016 0,-0.563 0.434,-1.051 1.055,-1.051 1.34,0 1.515,1.313 1.562,1.676 0.008,0.047 0.008,0.094 0.094,0.094 0.105,0 0.105,-0.039 0.105,-0.192 v -1.609 c 0,-0.137 0,-0.191 -0.086,-0.191 -0.058,0 -0.066,0.007 -0.121,0.105 l -0.281,0.453 c -0.238,-0.23 -0.566,-0.558 -1.281,-0.558 -0.887,0 -1.559,0.703 -1.559,1.55 0,0.664 0.426,1.25 1.047,1.465 0.09,0.031 0.496,0.129 1.059,0.266 0.215,0.054 0.453,0.109 0.679,0.406 0.168,0.211 0.247,0.473 0.247,0.738 0,0.567 -0.399,1.145 -1.071,1.145 -0.234,0 -0.84,-0.043 -1.265,-0.434 -0.465,-0.433 -0.489,-0.945 -0.496,-1.23 -0.008,-0.082 -0.071,-0.082 -0.094,-0.082 -0.106,0 -0.106,0.054 -0.106,0.199 v 1.601 c 0,0.137 0,0.192 0.09,0.192 0.055,0 0.063,-0.016 0.117,-0.106 0,0 0.024,-0.031 0.289,-0.453 0.246,0.27 0.762,0.559 1.473,0.559 0.934,0 1.574,-0.785 1.574,-1.664 z m 4.739,1.488 v -0.25 c -0.563,0 -0.625,-0.055 -0.625,-0.445 v -2.84 l -1.176,0.086 v 0.25 c 0.558,0 0.625,0.055 0.625,0.445 V 46.5 c 0,0.695 -0.387,1.238 -0.969,1.238 -0.672,0 -0.703,-0.375 -0.703,-0.789 v -2.656 l -1.176,0.086 v 0.25 c 0.621,0 0.621,0.023 0.621,0.734 v 1.199 c 0,0.626 0,1.352 1.219,1.352 0.445,0 0.797,-0.223 1.031,-0.719 v 0.719 z m 6.671,0 v -0.25 c -0.418,0 -0.617,0 -0.625,-0.238 v -1.528 c 0,-0.687 0,-0.937 -0.246,-1.222 -0.113,-0.137 -0.379,-0.297 -0.84,-0.297 -0.675,0 -1.027,0.48 -1.16,0.781 -0.113,-0.695 -0.707,-0.781 -1.066,-0.781 -0.582,0 -0.961,0.344 -1.184,0.84 v -0.84 l -1.129,0.086 v 0.25 c 0.563,0 0.625,0.055 0.625,0.445 v 2.145 c 0,0.359 -0.089,0.359 -0.625,0.359 v 0.25 l 0.907,-0.023 0.894,0.023 v -0.25 c -0.535,0 -0.625,0 -0.625,-0.359 v -1.473 c 0,-0.832 0.571,-1.277 1.082,-1.277 0.504,0 0.59,0.429 0.59,0.886 v 1.864 c 0,0.359 -0.086,0.359 -0.621,0.359 v 0.25 l 0.902,-0.023 0.895,0.023 v -0.25 c -0.535,0 -0.621,0 -0.621,-0.359 v -1.473 c 0,-0.832 0.566,-1.277 1.078,-1.277 0.504,0 0.594,0.429 0.594,0.886 v 1.864 c 0,0.359 -0.09,0.359 -0.625,0.359 v 0.25 l 0.902,-0.023 z"
       style="fill:#000000;fill-opacity:1;fill-rule:nonzero;stroke:none"
       transform="scale(1.3333333)" />
    <path
       id="path71"
       d="m 59.438,144.238 c 0,-1.562 -0.922,-2.047 -1.657,-2.047 -1.375,0 -2.687,1.422 -2.687,2.829 0,0.937 0.594,1.687 1.625,1.687 0.625,0 1.343,-0.234 2.093,-0.844 0.126,0.532 0.454,0.844 0.907,0.844 0.531,0 0.843,-0.547 0.843,-0.703 0,-0.078 -0.062,-0.109 -0.124,-0.109 -0.063,0 -0.094,0.031 -0.126,0.109 -0.187,0.484 -0.546,0.484 -0.562,0.484 -0.312,0 -0.312,-0.781 -0.312,-1.015 0,-0.203 0,-0.235 0.109,-0.344 0.937,-1.188 1.141,-2.344 1.141,-2.344 0,-0.031 -0.016,-0.109 -0.126,-0.109 -0.093,0 -0.093,0.031 -0.14,0.219 -0.188,0.625 -0.516,1.375 -0.984,1.968 z m -0.657,1.375 c -0.89,0.766 -1.656,0.875 -2.047,0.875 -0.593,0 -0.906,-0.453 -0.906,-1.093 0,-0.485 0.266,-1.563 0.578,-2.063 0.469,-0.734 1.016,-0.922 1.36,-0.922 0.984,0 0.984,1.313 0.984,2.078 0,0.375 0,0.953 0.031,1.125 z"
       style="fill:#000000;fill-opacity:1;fill-rule:nonzero;stroke:none"
       transform="scale(1.3333333)" />
    <path
       id="path72"
       d="m 64.656,145.875 c 0,-0.766 -0.094,-1.328 -0.406,-1.813 -0.219,-0.312 -0.656,-0.593 -1.203,-0.593 -1.625,0 -1.625,1.906 -1.625,2.406 0,0.5 0,2.359 1.625,2.359 1.609,0 1.609,-1.859 1.609,-2.359 z m -1.609,2.156 c -0.328,0 -0.75,-0.187 -0.891,-0.75 -0.094,-0.406 -0.094,-0.984 -0.094,-1.5 0,-0.515 0,-1.047 0.094,-1.422 0.156,-0.547 0.594,-0.703 0.891,-0.703 0.375,0 0.734,0.235 0.859,0.641 0.11,0.375 0.125,0.875 0.125,1.484 0,0.516 0,1.031 -0.093,1.469 -0.141,0.641 -0.61,0.781 -0.891,0.781 z"
       style="fill:#000000;fill-opacity:1;fill-rule:nonzero;stroke:none"
       transform="scale(1.3333333)" />
    <path
       id="path73"
       d="m 109.465,144.309 c 0,-1.563 -0.922,-2.047 -1.656,-2.047 -1.375,0 -2.688,1.422 -2.688,2.828 0,0.937 0.594,1.687 1.625,1.687 0.625,0 1.344,-0.234 2.094,-0.843 0.125,0.531 0.453,0.843 0.906,0.843 0.531,0 0.844,-0.547 0.844,-0.703 0,-0.078 -0.063,-0.109 -0.125,-0.109 -0.063,0 -0.094,0.031 -0.125,0.109 -0.188,0.485 -0.547,0.485 -0.563,0.485 -0.312,0 -0.312,-0.782 -0.312,-1.016 0,-0.203 0,-0.234 0.109,-0.344 0.938,-1.187 1.141,-2.344 1.141,-2.344 0,-0.031 -0.016,-0.109 -0.125,-0.109 -0.094,0 -0.094,0.031 -0.141,0.219 -0.187,0.625 -0.515,1.375 -0.984,1.969 z m -0.656,1.375 c -0.891,0.765 -1.657,0.875 -2.047,0.875 -0.594,0 -0.907,-0.454 -0.907,-1.094 0,-0.485 0.266,-1.563 0.579,-2.063 0.468,-0.734 1.015,-0.922 1.359,-0.922 0.984,0 0.984,1.313 0.984,2.079 0,0.375 0,0.953 0.032,1.125 z"
       style="fill:#000000;fill-opacity:1;fill-rule:nonzero;stroke:none"
       transform="scale(1.3333333)" />
    <path
       id="path74"
       d="m 113.418,143.727 c 0,-0.188 0,-0.188 -0.203,-0.188 -0.453,0.438 -1.078,0.438 -1.36,0.438 v 0.25 c 0.157,0 0.625,0 1,-0.188 v 3.547 c 0,0.234 0,0.328 -0.687,0.328 h -0.266 v 0.25 c 0.125,0 0.985,-0.031 1.235,-0.031 0.218,0 1.093,0.031 1.25,0.031 v -0.25 h -0.266 c -0.703,0 -0.703,-0.094 -0.703,-0.328 z"
       style="fill:#000000;fill-opacity:1;fill-rule:nonzero;stroke:none"
       transform="scale(1.3333333)" />
    <path
       id="path75"
       d="m 195.074,144.277 c 0,-1.562 -0.922,-2.047 -1.656,-2.047 -1.375,0 -2.688,1.422 -2.688,2.829 0,0.937 0.594,1.687 1.625,1.687 0.625,0 1.344,-0.234 2.094,-0.844 0.125,0.532 0.453,0.844 0.906,0.844 0.532,0 0.844,-0.547 0.844,-0.703 0,-0.078 -0.062,-0.109 -0.125,-0.109 -0.062,0 -0.094,0.031 -0.125,0.109 -0.187,0.484 -0.547,0.484 -0.562,0.484 -0.313,0 -0.313,-0.781 -0.313,-1.015 0,-0.203 0,-0.235 0.11,-0.344 0.937,-1.188 1.14,-2.344 1.14,-2.344 0,-0.031 -0.015,-0.109 -0.125,-0.109 -0.094,0 -0.094,0.031 -0.14,0.219 -0.188,0.625 -0.516,1.375 -0.985,1.968 z m -0.656,1.375 c -0.891,0.766 -1.656,0.875 -2.047,0.875 -0.594,0 -0.906,-0.453 -0.906,-1.093 0,-0.485 0.265,-1.563 0.578,-2.063 0.469,-0.734 1.016,-0.922 1.359,-0.922 0.985,0 0.985,1.313 0.985,2.078 0,0.375 0,0.953 0.031,1.125 z"
       style="fill:#000000;fill-opacity:1;fill-rule:nonzero;stroke:none"
       transform="scale(1.3333333)" />
    <path
       id="path76"
       d="m 197.543,147.695 c -0.016,0.094 -0.063,0.266 -0.063,0.282 0,0.156 0.125,0.218 0.235,0.218 0.125,0 0.234,-0.078 0.281,-0.14 0.031,-0.063 0.078,-0.297 0.125,-0.438 0.031,-0.125 0.109,-0.453 0.141,-0.625 0.047,-0.156 0.093,-0.312 0.125,-0.469 0.078,-0.281 0.093,-0.343 0.297,-0.625 0.187,-0.281 0.515,-0.64 1.046,-0.64 0.391,0 0.407,0.359 0.407,0.484 0,0.422 -0.297,1.188 -0.407,1.485 -0.078,0.203 -0.109,0.265 -0.109,0.375 0,0.375 0.297,0.593 0.656,0.593 0.703,0 1,-0.953 1,-1.062 0,-0.094 -0.078,-0.094 -0.109,-0.094 -0.094,0 -0.094,0.047 -0.125,0.125 -0.156,0.563 -0.469,0.844 -0.734,0.844 -0.157,0 -0.188,-0.094 -0.188,-0.25 0,-0.156 0.047,-0.25 0.172,-0.563 0.078,-0.218 0.359,-0.953 0.359,-1.343 0,-0.672 -0.531,-0.797 -0.906,-0.797 -0.578,0 -0.969,0.359 -1.172,0.64 -0.047,-0.484 -0.453,-0.64 -0.75,-0.64 -0.297,0 -0.453,0.218 -0.547,0.375 -0.156,0.265 -0.25,0.656 -0.25,0.703 0,0.078 0.094,0.078 0.125,0.078 0.094,0 0.094,-0.016 0.141,-0.203 0.109,-0.406 0.25,-0.75 0.516,-0.75 0.187,0 0.234,0.156 0.234,0.344 0,0.125 -0.063,0.39 -0.125,0.578 -0.047,0.187 -0.109,0.468 -0.141,0.625 z"
       style="fill:#000000;fill-opacity:1;fill-rule:nonzero;stroke:none"
       transform="scale(1.3333333)" />
    <path
       id="path77"
       d="m 84.508,80.023 -1.985,-1.984 c -0.125,-0.125 -0.14,-0.141 -0.218,-0.141 -0.11,0 -0.203,0.079 -0.203,0.204 0,0.062 0.015,0.078 0.125,0.187 l 2,2 -2,2.016 c -0.11,0.109 -0.125,0.125 -0.125,0.187 0,0.125 0.093,0.203 0.203,0.203 0.078,0 0.093,-0.015 0.218,-0.14 l 1.985,-1.985 2.062,2.063 c 0.016,0.015 0.078,0.062 0.141,0.062 0.125,0 0.203,-0.078 0.203,-0.203 0,-0.015 0,-0.047 -0.031,-0.109 -0.016,-0.016 -1.594,-1.578 -2.094,-2.094 l 1.828,-1.812 c 0.047,-0.063 0.203,-0.188 0.25,-0.25 0,-0.016 0.047,-0.063 0.047,-0.125 0,-0.125 -0.078,-0.204 -0.203,-0.204 -0.078,0 -0.109,0.032 -0.219,0.141 z"
       style="fill:#000000;fill-opacity:1;fill-rule:nonzero;stroke:none"
       transform="scale(1.3333333)" />
    <path
       id="path78"
       d="m 134.391,80.023 -1.985,-1.984 c -0.125,-0.125 -0.14,-0.141 -0.218,-0.141 -0.11,0 -0.204,0.079 -0.204,0.204 0,0.062 0.016,0.078 0.125,0.187 l 2,2 -2,2.016 c -0.109,0.109 -0.125,0.125 -0.125,0.187 0,0.125 0.094,0.203 0.204,0.203 0.078,0 0.093,-0.015 0.218,-0.14 l 1.985,-1.985 2.062,2.063 c 0.016,0.015 0.078,0.062 0.141,0.062 0.125,0 0.203,-0.078 0.203,-0.203 0,-0.015 0,-0.047 -0.031,-0.109 -0.016,-0.016 -1.594,-1.578 -2.094,-2.094 l 1.828,-1.812 c 0.047,-0.063 0.203,-0.188 0.25,-0.25 0,-0.016 0.047,-0.063 0.047,-0.125 0,-0.125 -0.078,-0.204 -0.203,-0.204 -0.078,0 -0.11,0.032 -0.219,0.141 z"
       style="fill:#000000;fill-opacity:1;fill-rule:nonzero;stroke:none"
       transform="scale(1.3333333)" />
    <path
       id="path79"
       d="m 220.641,80.023 -1.985,-1.984 c -0.125,-0.125 -0.14,-0.141 -0.218,-0.141 -0.11,0 -0.204,0.079 -0.204,0.204 0,0.062 0.016,0.078 0.125,0.187 l 2,2 -2,2.016 c -0.109,0.109 -0.125,0.125 -0.125,0.187 0,0.125 0.094,0.203 0.204,0.203 0.078,0 0.093,-0.015 0.218,-0.14 l 1.985,-1.985 2.062,2.063 c 0.016,0.015 0.078,0.062 0.141,0.062 0.125,0 0.203,-0.078 0.203,-0.203 0,-0.015 0,-0.047 -0.031,-0.109 -0.016,-0.016 -1.594,-1.578 -2.094,-2.094 l 1.828,-1.812 c 0.047,-0.063 0.203,-0.188 0.25,-0.25 0,-0.016 0.047,-0.063 0.047,-0.125 0,-0.125 -0.078,-0.204 -0.203,-0.204 -0.078,0 -0.11,0.032 -0.219,0.141 z"
       style="fill:#000000;fill-opacity:1;fill-rule:nonzero;stroke:none"
       transform="scale(1.3333333)" />
    <path
       id="path80"
       d="m 151.293,307.691 c 0,-0.23 -0.195,-0.425 -0.426,-0.425 -0.23,0 -0.422,0.195 -0.422,0.425 0,0.231 0.192,0.426 0.422,0.426 0.231,0 0.426,-0.195 0.426,-0.426 z m 2.223,0 c 0,-0.23 -0.192,-0.425 -0.426,-0.425 -0.231,0 -0.422,0.195 -0.422,0.425 0,0.231 0.191,0.426 0.422,0.426 0.234,0 0.426,-0.195 0.426,-0.426 z m 2.222,0 c 0,-0.23 -0.191,-0.425 -0.422,-0.425 -0.234,0 -0.425,0.195 -0.425,0.425 0,0.231 0.191,0.426 0.425,0.426 0.231,0 0.422,-0.195 0.422,-0.426 z"
       style="fill:#000000;fill-opacity:1;fill-rule:nonzero;stroke:none"
       transform="scale(1.3333333)" />
    <path
       id="path81"
       d="m 159.848,249.516 c 0,-0.231 -0.192,-0.422 -0.426,-0.422 -0.231,0 -0.422,0.191 -0.422,0.422 0,0.234 0.191,0.425 0.422,0.425 0.234,0 0.426,-0.191 0.426,-0.425 z m 2.222,0 c 0,-0.231 -0.191,-0.422 -0.422,-0.422 -0.234,0 -0.425,0.191 -0.425,0.422 0,0.234 0.191,0.425 0.425,0.425 0.231,0 0.422,-0.191 0.422,-0.425 z m 2.227,0 c 0,-0.231 -0.195,-0.422 -0.426,-0.422 -0.23,0 -0.426,0.191 -0.426,0.422 0,0.234 0.196,0.425 0.426,0.425 0.231,0 0.426,-0.191 0.426,-0.425 z"
       style="fill:#000000;fill-opacity:1;fill-rule:nonzero;stroke:none"
       transform="scale(1.3333333)" />
    <path
       id="path82"
       d="m 166.812,131.301 c 0,-0.231 -0.191,-0.422 -0.425,-0.422 -0.231,0 -0.422,0.191 -0.422,0.422 0,0.23 0.191,0.426 0.422,0.426 0.234,0 0.425,-0.192 0.425,-0.426 z m 2.223,0 c 0,-0.231 -0.191,-0.422 -0.422,-0.422 -0.234,0 -0.425,0.191 -0.425,0.422 0,0.23 0.191,0.426 0.425,0.426 0.231,0 0.422,-0.192 0.422,-0.426 z m 2.227,0 c 0,-0.231 -0.192,-0.422 -0.426,-0.422 -0.231,0 -0.422,0.191 -0.422,0.422 0,0.23 0.191,0.426 0.422,0.426 0.234,0 0.426,-0.192 0.426,-0.426 z"
       style="fill:#000000;fill-opacity:1;fill-rule:nonzero;stroke:none"
       transform="scale(1.3333333)" />
    <path
       id="path83"
       d="m 84.414,104.023 c 6.027,-0.128 11.055,11.539 11.461,26.618 0.406,15.078 -3.945,28.336 -9.926,30.246 -5.984,1.906 -11.523,-8.196 -12.637,-23.051 -1.113,-14.852 2.586,-29.305 8.438,-32.965"
       style="fill:#e4b17e;fill-opacity:1;fill-rule:nonzero;stroke:none"
       transform="scale(1.3333333)" />
    <path
       id="path84"
       d="m 134.293,104.023 c 6.031,-0.128 11.055,11.539 11.465,26.618 0.406,15.078 -3.946,28.336 -9.93,30.246 -5.98,1.906 -11.519,-8.196 -12.633,-23.051 -1.113,-14.852 2.582,-29.305 8.434,-32.965"
       style="fill:#e4b17e;fill-opacity:1;fill-rule:nonzero;stroke:none"
       transform="scale(1.3333333)" />
    <path
       id="path85"
       d="m 220.543,104.023 c 6.031,-0.128 11.055,11.539 11.465,26.618 0.406,15.078 -3.946,28.336 -9.93,30.246 -5.98,1.906 -11.519,-8.196 -12.633,-23.051 -1.113,-14.852 2.582,-29.305 8.434,-32.965"
       style="fill:#e4b17e;fill-opacity:1;fill-rule:nonzero;stroke:none"
       transform="scale(1.3333333)" />
    <path
       id="path86"
       d="m 64.027,348.656 c -0.015,-0.031 -0.047,-0.109 -0.047,-0.14 0,0 0.172,-0.141 0.282,-0.219 l 1.75,-1.344 c 0.937,-0.703 1.328,-0.734 1.625,-0.765 0.078,-0.016 0.172,-0.016 0.172,-0.204 0,-0.031 -0.032,-0.109 -0.11,-0.109 -0.219,0 -0.469,0.031 -0.703,0.031 -0.359,0 -0.75,-0.031 -1.109,-0.031 -0.063,0 -0.188,0 -0.188,0.203 0,0.063 0.047,0.094 0.125,0.11 0.219,0.015 0.297,0.062 0.297,0.203 0,0.187 -0.297,0.421 -0.359,0.468 l -3.875,2.985 0.797,-3.203 c 0.078,-0.36 0.109,-0.453 0.828,-0.453 0.25,0 0.343,0 0.343,-0.204 0,-0.078 -0.078,-0.109 -0.14,-0.109 -0.281,0 -1,0.031 -1.281,0.031 -0.282,0 -0.985,-0.031 -1.282,-0.031 -0.062,0 -0.203,0 -0.203,0.187 0,0.126 0.094,0.126 0.297,0.126 0.125,0 0.313,0.015 0.422,0.015 0.156,0.031 0.219,0.047 0.219,0.172 0,0.031 0,0.063 -0.032,0.187 l -1.343,5.344 c -0.094,0.391 -0.11,0.469 -0.907,0.469 -0.171,0 -0.281,0 -0.281,0.187 0,0.126 0.125,0.126 0.156,0.126 0.282,0 0.985,-0.032 1.266,-0.032 0.203,0 0.422,0.016 0.641,0.016 0.218,0 0.437,0.016 0.64,0.016 0.078,0 0.203,0 0.203,-0.204 0,-0.109 -0.093,-0.109 -0.281,-0.109 -0.375,0 -0.64,0 -0.64,-0.172 0,-0.078 0.046,-0.297 0.078,-0.437 0.14,-0.532 0.281,-1.047 0.406,-1.578 l 1.484,-1.157 1.157,2.688 c 0.125,0.265 0.125,0.297 0.125,0.343 0,0.313 -0.438,0.313 -0.532,0.313 -0.109,0 -0.218,0 -0.218,0.203 0,0.11 0.125,0.11 0.14,0.11 0.406,0 0.828,-0.032 1.219,-0.032 0.219,0 0.766,0.032 0.984,0.032 0.047,0 0.172,0 0.172,-0.204 0,-0.109 -0.109,-0.109 -0.203,-0.109 -0.406,0 -0.531,-0.094 -0.687,-0.437 z"
       style="fill:#000000;fill-opacity:1;fill-rule:nonzero;stroke:none"
       transform="scale(1.3333333)" />
    <path
       id="path87"
       d="m 71.004,351.965 c 0,-0.766 -0.094,-1.328 -0.406,-1.813 -0.219,-0.312 -0.657,-0.593 -1.203,-0.593 -1.625,0 -1.625,1.906 -1.625,2.406 0,0.5 0,2.359 1.625,2.359 1.609,0 1.609,-1.859 1.609,-2.359 z m -1.609,2.156 c -0.329,0 -0.75,-0.187 -0.891,-0.75 -0.094,-0.406 -0.094,-0.984 -0.094,-1.5 0,-0.516 0,-1.047 0.094,-1.422 0.156,-0.547 0.594,-0.703 0.891,-0.703 0.375,0 0.734,0.234 0.859,0.641 0.109,0.375 0.125,0.875 0.125,1.484 0,0.516 0,1.031 -0.094,1.469 -0.14,0.64 -0.609,0.781 -0.89,0.781 z"
       style="fill:#000000;fill-opacity:1;fill-rule:nonzero;stroke:none"
       transform="scale(1.3333333)" />
    <path
       id="path88"
       d="m 114.055,348.727 c -0.016,-0.032 -0.047,-0.11 -0.047,-0.141 0,0 0.172,-0.141 0.281,-0.219 l 1.75,-1.344 c 0.938,-0.703 1.328,-0.734 1.625,-0.765 0.078,-0.016 0.172,-0.016 0.172,-0.203 0,-0.032 -0.031,-0.11 -0.109,-0.11 -0.219,0 -0.469,0.032 -0.704,0.032 -0.359,0 -0.75,-0.032 -1.109,-0.032 -0.062,0 -0.187,0 -0.187,0.203 0,0.063 0.046,0.094 0.125,0.11 0.218,0.015 0.296,0.062 0.296,0.203 0,0.187 -0.296,0.422 -0.359,0.469 l -3.875,2.984 0.797,-3.203 c 0.078,-0.359 0.109,-0.453 0.828,-0.453 0.25,0 0.344,0 0.344,-0.203 0,-0.078 -0.078,-0.11 -0.141,-0.11 -0.281,0 -1,0.032 -1.281,0.032 -0.281,0 -0.984,-0.032 -1.281,-0.032 -0.063,0 -0.203,0 -0.203,0.188 0,0.125 0.093,0.125 0.296,0.125 0.125,0 0.313,0.015 0.422,0.015 0.157,0.032 0.219,0.047 0.219,0.172 0,0.032 0,0.063 -0.031,0.188 l -1.344,5.344 c -0.094,0.39 -0.109,0.468 -0.906,0.468 -0.172,0 -0.281,0 -0.281,0.188 0,0.125 0.125,0.125 0.156,0.125 0.281,0 0.984,-0.031 1.265,-0.031 0.204,0 0.422,0.015 0.641,0.015 0.219,0 0.438,0.016 0.641,0.016 0.078,0 0.203,0 0.203,-0.203 0,-0.11 -0.094,-0.11 -0.281,-0.11 -0.375,0 -0.641,0 -0.641,-0.172 0,-0.078 0.047,-0.296 0.078,-0.437 0.141,-0.531 0.281,-1.047 0.406,-1.578 l 1.485,-1.156 1.156,2.687 c 0.125,0.266 0.125,0.297 0.125,0.344 0,0.312 -0.438,0.312 -0.531,0.312 -0.11,0 -0.219,0 -0.219,0.203 0,0.11 0.125,0.11 0.141,0.11 0.406,0 0.828,-0.031 1.218,-0.031 0.219,0 0.766,0.031 0.985,0.031 0.047,0 0.172,0 0.172,-0.203 0,-0.11 -0.11,-0.11 -0.204,-0.11 -0.406,0 -0.531,-0.093 -0.687,-0.437 z"
       style="fill:#000000;fill-opacity:1;fill-rule:nonzero;stroke:none"
       transform="scale(1.3333333)" />
    <path
       id="path89"
       d="m 119.766,349.816 c 0,-0.187 0,-0.187 -0.204,-0.187 -0.453,0.437 -1.078,0.437 -1.359,0.437 v 0.25 c 0.156,0 0.625,0 1,-0.187 v 3.547 c 0,0.234 0,0.328 -0.687,0.328 h -0.266 v 0.25 c 0.125,0 0.984,-0.031 1.234,-0.031 0.219,0 1.094,0.031 1.25,0.031 v -0.25 h -0.265 c -0.703,0 -0.703,-0.094 -0.703,-0.328 z"
       style="fill:#000000;fill-opacity:1;fill-rule:nonzero;stroke:none"
       transform="scale(1.3333333)" />
    <path
       id="path90"
       d="m 199.664,348.695 c -0.016,-0.031 -0.047,-0.109 -0.047,-0.14 0,0 0.172,-0.141 0.281,-0.219 l 1.75,-1.344 c 0.938,-0.703 1.329,-0.734 1.625,-0.765 0.079,-0.016 0.172,-0.016 0.172,-0.204 0,-0.031 -0.031,-0.109 -0.109,-0.109 -0.219,0 -0.469,0.031 -0.703,0.031 -0.36,0 -0.75,-0.031 -1.11,-0.031 -0.062,0 -0.187,0 -0.187,0.203 0,0.063 0.047,0.094 0.125,0.11 0.219,0.015 0.297,0.062 0.297,0.203 0,0.187 -0.297,0.422 -0.36,0.468 l -3.875,2.985 0.797,-3.203 c 0.078,-0.36 0.11,-0.453 0.828,-0.453 0.25,0 0.344,0 0.344,-0.204 0,-0.078 -0.078,-0.109 -0.14,-0.109 -0.282,0 -1,0.031 -1.282,0.031 -0.281,0 -0.984,-0.031 -1.281,-0.031 -0.062,0 -0.203,0 -0.203,0.188 0,0.125 0.094,0.125 0.297,0.125 0.125,0 0.312,0.015 0.422,0.015 0.156,0.031 0.218,0.047 0.218,0.172 0,0.031 0,0.063 -0.031,0.188 l -1.344,5.343 c -0.093,0.391 -0.109,0.469 -0.906,0.469 -0.172,0 -0.281,0 -0.281,0.188 0,0.125 0.125,0.125 0.156,0.125 0.281,0 0.985,-0.032 1.266,-0.032 0.203,0 0.422,0.016 0.64,0.016 0.219,0 0.438,0.016 0.641,0.016 0.078,0 0.203,0 0.203,-0.204 0,-0.109 -0.094,-0.109 -0.281,-0.109 -0.375,0 -0.641,0 -0.641,-0.172 0,-0.078 0.047,-0.297 0.078,-0.437 0.141,-0.532 0.282,-1.047 0.407,-1.578 l 1.484,-1.157 1.156,2.688 c 0.125,0.265 0.125,0.297 0.125,0.344 0,0.312 -0.437,0.312 -0.531,0.312 -0.109,0 -0.219,0 -0.219,0.203 0,0.11 0.125,0.11 0.141,0.11 0.406,0 0.828,-0.032 1.219,-0.032 0.218,0 0.765,0.032 0.984,0.032 0.047,0 0.172,0 0.172,-0.204 0,-0.109 -0.109,-0.109 -0.203,-0.109 -0.406,0 -0.531,-0.094 -0.688,-0.437 z"
       style="fill:#000000;fill-opacity:1;fill-rule:nonzero;stroke:none"
       transform="scale(1.3333333)" />
    <path
       id="path91"
       d="m 203.891,353.785 c -0.016,0.094 -0.063,0.266 -0.063,0.281 0,0.157 0.125,0.219 0.234,0.219 0.126,0 0.235,-0.078 0.282,-0.14 0.031,-0.063 0.078,-0.297 0.125,-0.438 0.031,-0.125 0.109,-0.453 0.14,-0.625 0.047,-0.156 0.094,-0.312 0.125,-0.469 0.078,-0.281 0.094,-0.343 0.297,-0.625 0.188,-0.281 0.516,-0.64 1.047,-0.64 0.391,0 0.406,0.359 0.406,0.484 0,0.422 -0.296,1.188 -0.406,1.484 -0.078,0.204 -0.109,0.266 -0.109,0.375 0,0.375 0.297,0.594 0.656,0.594 0.703,0 1,-0.953 1,-1.062 0,-0.094 -0.078,-0.094 -0.109,-0.094 -0.094,0 -0.094,0.047 -0.125,0.125 -0.157,0.562 -0.469,0.844 -0.735,0.844 -0.156,0 -0.187,-0.094 -0.187,-0.25 0,-0.157 0.047,-0.25 0.172,-0.563 0.078,-0.219 0.359,-0.953 0.359,-1.344 0,-0.671 -0.531,-0.796 -0.906,-0.796 -0.578,0 -0.969,0.359 -1.172,0.64 -0.047,-0.484 -0.453,-0.64 -0.75,-0.64 -0.297,0 -0.453,0.218 -0.547,0.375 -0.156,0.265 -0.25,0.656 -0.25,0.703 0,0.078 0.094,0.078 0.125,0.078 0.094,0 0.094,-0.016 0.141,-0.203 0.109,-0.407 0.25,-0.75 0.515,-0.75 0.188,0 0.235,0.156 0.235,0.343 0,0.125 -0.063,0.391 -0.125,0.579 -0.047,0.187 -0.11,0.468 -0.141,0.625 z"
       style="fill:#000000;fill-opacity:1;fill-rule:nonzero;stroke:none"
       transform="scale(1.3333333)" />
    <path
       id="path92"
       d="m 10.039,309.734 c 1.547,-0.578 3.016,-2.359 3.016,-4.281 0,-1.609 -1.063,-2.687 -2.547,-2.687 -2.141,0 -4.344,2.265 -4.344,4.593 0,1.657 1.125,2.657 2.563,2.657 0.25,0 0.578,-0.047 0.968,-0.157 -0.031,0.625 -0.031,0.641 -0.031,0.782 0,0.312 0,1.093 0.828,1.093 1.172,0 1.656,-1.828 1.656,-1.937 0,-0.063 -0.062,-0.094 -0.109,-0.094 -0.078,0 -0.094,0.047 -0.125,0.109 -0.234,0.704 -0.812,0.954 -1.156,0.954 -0.469,0 -0.61,-0.266 -0.719,-1.032 z m -1.875,-0.078 c -0.781,-0.312 -1.125,-1.078 -1.125,-1.984 0,-0.688 0.266,-2.11 1.016,-3.172 0.734,-1.016 1.672,-1.484 2.406,-1.484 0.984,0 1.719,0.781 1.719,2.109 0,1 -0.516,3.344 -2.188,4.266 -0.047,-0.344 -0.14,-1.063 -0.875,-1.063 -0.531,0 -1.015,0.484 -1.015,1.016 0,0.187 0.062,0.297 0.062,0.312 z m 0.609,0.11 c -0.14,0 -0.453,0 -0.453,-0.422 0,-0.406 0.375,-0.797 0.797,-0.797 0.422,0 0.61,0.234 0.61,0.844 0,0.14 -0.016,0.156 -0.11,0.203 -0.265,0.109 -0.562,0.172 -0.844,0.172 z"
       style="fill:#000000;fill-opacity:1;fill-rule:nonzero;stroke:none"
       transform="scale(1.3333333)" />
    <path
       id="path93"
       d="m 16.617,306.934 c 0,-0.11 -0.094,-0.266 -0.281,-0.266 -0.203,0 -0.391,0.203 -0.391,0.391 0,0.109 0.078,0.265 0.282,0.265 0.187,0 0.39,-0.187 0.39,-0.39 z m -1.484,4.703 c -0.11,0.484 -0.485,0.875 -0.891,0.875 -0.094,0 -0.172,0 -0.25,-0.032 0.172,-0.093 0.235,-0.25 0.235,-0.359 0,-0.172 -0.141,-0.25 -0.282,-0.25 -0.203,0 -0.39,0.188 -0.39,0.406 0,0.266 0.265,0.438 0.687,0.438 0.422,0 1.235,-0.25 1.453,-1.094 l 0.625,-2.5 c 0.016,-0.078 0.032,-0.141 0.032,-0.25 0,-0.375 -0.329,-0.656 -0.735,-0.656 -0.781,0 -1.219,0.969 -1.219,1.078 0,0.078 0.094,0.078 0.11,0.078 0.078,0 0.094,-0.016 0.14,-0.125 0.172,-0.406 0.532,-0.828 0.938,-0.828 0.172,0 0.234,0.109 0.234,0.344 0,0.078 0,0.172 -0.015,0.203 z"
       style="fill:#000000;fill-opacity:1;fill-rule:nonzero;stroke:none"
       transform="scale(1.3333333)" />
    <path
       id="path94"
       d="m 85.793,129.484 c 0.484,-0.781 0.906,-0.812 1.266,-0.828 0.125,-0.015 0.14,-0.172 0.14,-0.187 0,-0.078 -0.062,-0.125 -0.14,-0.125 -0.25,0 -0.547,0.031 -0.813,0.031 -0.328,0 -0.672,-0.031 -0.984,-0.031 -0.063,0 -0.188,0 -0.188,0.187 0,0.11 0.078,0.125 0.156,0.125 0.266,0.016 0.454,0.125 0.454,0.328 0,0.157 -0.141,0.375 -0.141,0.375 l -3.063,4.875 -0.687,-5.281 c 0,-0.172 0.234,-0.297 0.687,-0.297 0.141,0 0.25,0 0.25,-0.203 0,-0.078 -0.078,-0.109 -0.125,-0.109 -0.406,0 -0.828,0.031 -1.25,0.031 -0.171,0 -0.359,0 -0.546,0 -0.172,0 -0.36,-0.031 -0.532,-0.031 -0.078,0 -0.187,0 -0.187,0.187 0,0.125 0.078,0.125 0.25,0.125 0.547,0 0.562,0.094 0.594,0.344 l 0.781,6.141 c 0.031,0.203 0.078,0.234 0.203,0.234 0.156,0 0.203,-0.047 0.281,-0.172 z"
       style="fill:#000000;fill-opacity:1;fill-rule:nonzero;stroke:none"
       transform="scale(1.3333333)" />
    <path
       id="path95"
       d="m 88.93,134.434 c 0,-0.766 -0.094,-1.329 -0.407,-1.813 -0.218,-0.312 -0.656,-0.594 -1.203,-0.594 -1.625,0 -1.625,1.907 -1.625,2.407 0,0.5 0,2.359 1.625,2.359 1.61,0 1.61,-1.859 1.61,-2.359 z m -1.61,2.156 c -0.328,0 -0.75,-0.188 -0.89,-0.75 -0.094,-0.406 -0.094,-0.985 -0.094,-1.5 0,-0.516 0,-1.047 0.094,-1.422 0.156,-0.547 0.593,-0.703 0.89,-0.703 0.375,0 0.735,0.234 0.86,0.64 0.109,0.375 0.125,0.875 0.125,1.485 0,0.515 0,1.031 -0.094,1.469 -0.141,0.64 -0.609,0.781 -0.891,0.781 z"
       style="fill:#000000;fill-opacity:1;fill-rule:nonzero;stroke:none"
       transform="scale(1.3333333)" />
    <path
       id="path96"
       d="m 135.82,129.555 c 0.485,-0.782 0.907,-0.813 1.266,-0.828 0.125,-0.016 0.141,-0.172 0.141,-0.188 0,-0.078 -0.063,-0.125 -0.141,-0.125 -0.25,0 -0.547,0.031 -0.813,0.031 -0.328,0 -0.671,-0.031 -0.984,-0.031 -0.062,0 -0.187,0 -0.187,0.188 0,0.109 0.078,0.125 0.156,0.125 0.265,0.015 0.453,0.125 0.453,0.328 0,0.156 -0.141,0.375 -0.141,0.375 l -3.062,4.875 -0.688,-5.282 c 0,-0.171 0.235,-0.296 0.688,-0.296 0.14,0 0.25,0 0.25,-0.204 0,-0.078 -0.078,-0.109 -0.125,-0.109 -0.406,0 -0.828,0.031 -1.25,0.031 -0.172,0 -0.36,0 -0.547,0 -0.172,0 -0.359,-0.031 -0.531,-0.031 -0.078,0 -0.188,0 -0.188,0.188 0,0.125 0.078,0.125 0.25,0.125 0.547,0 0.563,0.093 0.594,0.343 l 0.781,6.141 c 0.031,0.203 0.078,0.234 0.203,0.234 0.157,0 0.203,-0.047 0.282,-0.172 z"
       style="fill:#000000;fill-opacity:1;fill-rule:nonzero;stroke:none"
       transform="scale(1.3333333)" />
    <path
       id="path97"
       d="m 137.695,132.285 c 0,-0.187 0,-0.187 -0.203,-0.187 -0.453,0.437 -1.078,0.437 -1.359,0.437 v 0.25 c 0.156,0 0.625,0 1,-0.187 v 3.547 c 0,0.234 0,0.328 -0.688,0.328 h -0.265 v 0.25 c 0.125,0 0.984,-0.032 1.234,-0.032 0.219,0 1.094,0.032 1.25,0.032 v -0.25 h -0.266 c -0.703,0 -0.703,-0.094 -0.703,-0.328 z"
       style="fill:#000000;fill-opacity:1;fill-rule:nonzero;stroke:none"
       transform="scale(1.3333333)" />
    <path
       id="path98"
       d="m 221.43,129.523 c 0.484,-0.781 0.906,-0.812 1.265,-0.828 0.125,-0.015 0.141,-0.172 0.141,-0.187 0,-0.078 -0.063,-0.125 -0.141,-0.125 -0.25,0 -0.547,0.031 -0.812,0.031 -0.328,0 -0.672,-0.031 -0.985,-0.031 -0.062,0 -0.187,0 -0.187,0.187 0,0.11 0.078,0.125 0.156,0.125 0.266,0.016 0.453,0.125 0.453,0.328 0,0.157 -0.14,0.375 -0.14,0.375 l -3.063,4.875 -0.687,-5.281 c 0,-0.172 0.234,-0.297 0.687,-0.297 0.141,0 0.25,0 0.25,-0.203 0,-0.078 -0.078,-0.109 -0.125,-0.109 -0.406,0 -0.828,0.031 -1.25,0.031 -0.172,0 -0.359,0 -0.547,0 -0.172,0 -0.359,-0.031 -0.531,-0.031 -0.078,0 -0.187,0 -0.187,0.187 0,0.125 0.078,0.125 0.25,0.125 0.546,0 0.562,0.094 0.593,0.344 l 0.782,6.141 c 0.031,0.203 0.078,0.234 0.203,0.234 0.156,0 0.203,-0.047 0.281,-0.172 z"
       style="fill:#000000;fill-opacity:1;fill-rule:nonzero;stroke:none"
       transform="scale(1.3333333)" />
    <path
       id="path99"
       d="m 221.82,136.254 c -0.015,0.094 -0.062,0.266 -0.062,0.281 0,0.156 0.125,0.219 0.234,0.219 0.125,0 0.235,-0.078 0.281,-0.141 0.032,-0.062 0.079,-0.297 0.125,-0.437 0.032,-0.125 0.11,-0.453 0.141,-0.625 0.047,-0.156 0.094,-0.313 0.125,-0.469 0.078,-0.281 0.094,-0.344 0.297,-0.625 0.187,-0.281 0.516,-0.641 1.047,-0.641 0.39,0 0.406,0.36 0.406,0.485 0,0.422 -0.297,1.187 -0.406,1.484 -0.078,0.203 -0.11,0.266 -0.11,0.375 0,0.375 0.297,0.594 0.657,0.594 0.703,0 1,-0.953 1,-1.063 0,-0.093 -0.078,-0.093 -0.11,-0.093 -0.093,0 -0.093,0.047 -0.125,0.125 -0.156,0.562 -0.468,0.843 -0.734,0.843 -0.156,0 -0.188,-0.093 -0.188,-0.25 0,-0.156 0.047,-0.25 0.172,-0.562 0.078,-0.219 0.36,-0.953 0.36,-1.344 0,-0.672 -0.532,-0.797 -0.907,-0.797 -0.578,0 -0.968,0.36 -1.171,0.641 -0.047,-0.484 -0.454,-0.641 -0.75,-0.641 -0.297,0 -0.454,0.219 -0.547,0.375 -0.157,0.266 -0.25,0.657 -0.25,0.703 0,0.079 0.093,0.079 0.125,0.079 0.093,0 0.093,-0.016 0.14,-0.204 0.11,-0.406 0.25,-0.75 0.516,-0.75 0.187,0 0.234,0.157 0.234,0.344 0,0.125 -0.062,0.391 -0.125,0.578 -0.047,0.188 -0.109,0.469 -0.14,0.625 z"
       style="fill:#000000;fill-opacity:1;fill-rule:nonzero;stroke:none"
       transform="scale(1.3333333)" />
    <path
       id="path100"
       d="m 155.016,9.105 c 0,-1.609 -1.063,-2.687 -2.547,-2.687 -2.141,0 -4.344,2.266 -4.344,4.594 0,1.656 1.125,2.656 2.563,2.656 2.109,0 4.328,-2.188 4.328,-4.563 z m -4.282,4.297 c -0.984,0 -1.672,-0.797 -1.672,-2.109 0,-0.453 0.141,-1.906 0.907,-3.063 0.687,-1.046 1.656,-1.562 2.453,-1.562 0.812,0 1.703,0.562 1.703,2.047 0,0.719 -0.266,2.265 -1.25,3.5 -0.484,0.609 -1.297,1.187 -2.141,1.187 z"
       style="fill:#000000;fill-opacity:1;fill-rule:nonzero;stroke:none"
       transform="scale(1.3333333)" />
    <path
       id="path101"
       d="m 158.305,10.586 c 0,-0.109 -0.094,-0.266 -0.282,-0.266 -0.203,0 -0.39,0.203 -0.39,0.391 0,0.109 0.078,0.266 0.281,0.266 0.188,0 0.391,-0.188 0.391,-0.391 z m -1.485,4.703 c -0.109,0.484 -0.484,0.875 -0.89,0.875 -0.094,0 -0.172,0 -0.25,-0.031 0.172,-0.094 0.234,-0.25 0.234,-0.36 0,-0.171 -0.141,-0.25 -0.281,-0.25 -0.203,0 -0.391,0.188 -0.391,0.407 0,0.265 0.266,0.437 0.688,0.437 0.422,0 1.234,-0.25 1.453,-1.094 l 0.625,-2.5 c 0.015,-0.078 0.031,-0.14 0.031,-0.25 0,-0.375 -0.328,-0.656 -0.734,-0.656 -0.782,0 -1.219,0.969 -1.219,1.078 0,0.078 0.094,0.078 0.109,0.078 0.078,0 0.094,-0.015 0.141,-0.125 0.172,-0.406 0.531,-0.828 0.937,-0.828 0.172,0 0.235,0.11 0.235,0.344 0,0.078 0,0.172 -0.016,0.203 z"
       style="fill:#000000;fill-opacity:1;fill-rule:nonzero;stroke:none"
       transform="scale(1.3333333)" />
    <text
       xml:space="preserve"
       style="font-size:10.6667px;line-height:1.25;font-family:'Latin Modern Math';-inkscape-font-specification:'Latin Modern Math, Normal';text-align:center;letter-spacing:0px;text-anchor:middle"
       x="332.80466"
       y="-82.913338"
       id="text101"
       transform="rotate(90)"><tspan
         sodipodi:role="line"
         id="tspan101"
         x="332.80466"
         y="-82.913338">Dot Product</tspan><tspan
         sodipodi:role="line"
         x="332.80466"
         y="-69.579964"
         id="tspan102">and Scale</tspan><tspan
         sodipodi:role="line"
         x="332.80466"
         y="-56.246586"
         id="tspan103" /></text>
    <text
       xml:space="preserve"
       style="font-size:10.6667px;line-height:1.25;font-family:'Latin Modern Math';-inkscape-font-specification:'Latin Modern Math, Normal';text-align:center;letter-spacing:0px;text-anchor:middle"
       x="332.80466"
       y="-149.42134"
       id="text101-0"
       transform="rotate(90)"><tspan
         sodipodi:role="line"
         id="tspan101-6"
         x="332.80466"
         y="-149.42134">Dot Product</tspan><tspan
         sodipodi:role="line"
         x="332.80466"
         y="-136.08797"
         id="tspan102-3">and Scale</tspan><tspan
         sodipodi:role="line"
         x="332.80466"
         y="-122.75459"
         id="tspan103-2" /></text>
    <text
       xml:space="preserve"
       style="font-size:10.6667px;line-height:1.25;font-family:'Latin Modern Math';-inkscape-font-specification:'Latin Modern Math, Normal';text-align:center;letter-spacing:0px;text-anchor:middle"
       x="332.80466"
       y="-264.42133"
       id="text101-5"
       transform="rotate(90)"><tspan
         sodipodi:role="line"
         id="tspan101-4"
         x="332.80466"
         y="-264.42133">Dot Product</tspan><tspan
         sodipodi:role="line"
         x="332.80466"
         y="-251.08797"
         id="tspan102-7">and Scale</tspan><tspan
         sodipodi:role="line"
         x="332.80466"
         y="-237.75459"
         id="tspan103-6" /></text>
  </g>
</svg>
